<?xml version="1.0" standalone="no"?><!DOCTYPE svg PUBLIC "-//W3C//DTD SVG 1.1//EN" "http://www.w3.org/Graphics/SVG/1.1/DTD/svg11.dtd"><svg t="1632489821561" class="icon" viewBox="0 0 1024 1024" version="1.1" xmlns="http://www.w3.org/2000/svg" p-id="4493" width="48" height="48" xmlns:xlink="http://www.w3.org/1999/xlink"><defs><style type="text/css"></style></defs><path d="M883.8144 305.373867H140.1856a68.266667 68.266667 0 0 0-67.925333 75.178666l50.056533 491.52a68.266667 68.266667 0 0 0 67.925333 61.354667h643.5328a68.266667 68.266667 0 0 0 67.925334-61.354667l50.039466-491.52a68.266667 68.266667 0 0 0-67.925333-75.178666z m-743.6288 68.266666h743.6288l-50.039467 491.52H190.225067l-50.039467-491.52z" fill="#868789" p-id="4494"></path><path d="M607.573333 85.333333a102.4 102.4 0 0 1 102.331734 98.56L709.973333 187.733333v228.437334a34.133333 34.133333 0 0 1-68.164266 2.56l-0.1024-2.56V187.733333a34.133333 34.133333 0 0 0-31.573334-34.030933L607.573333 153.6H416.426667a34.133333 34.133333 0 0 0-34.030934 31.5904l-0.1024 2.56v228.420267a34.133333 34.133333 0 0 1-68.164266 2.56l-0.1024-2.56V187.733333a102.4 102.4 0 0 1 98.56-102.314666L416.426667 85.333333h191.146666z" fill="#868789" p-id="4495"></path><path d="M699.733333 733.866667v34.133333a34.133333 34.133333 0 0 1-34.133333 34.133333H358.4a34.133333 34.133333 0 0 1-34.133333-34.133333v-34.133333h375.466666z" fill="#868789" p-id="4496"></path></svg>